<?xml version="1.0" encoding="UTF-8"?>
<!DOCTYPE svg PUBLIC "-//W3C//DTD SVG 1.1//EN" "http://www.w3.org/Graphics/SVG/1.1/DTD/svg11.dtd">
<!-- Creator: CorelDRAW 2018 (64-Bit) -->
<svg xmlns="http://www.w3.org/2000/svg" xml:space="preserve" width="10mm" height="10mm" version="1.1" style="shape-rendering:geometricPrecision; text-rendering:geometricPrecision; image-rendering:optimizeQuality; fill-rule:evenodd; clip-rule:evenodd"
viewBox="0 0 1000 1000"
 xmlns:xlink="http://www.w3.org/1999/xlink">
 <defs>
  <style type="text/css">
   <![CDATA[
    .fil0 {fill:url(#id0)}
   ]]>
  </style>
  <linearGradient id="id0" gradientUnits="userSpaceOnUse" x1="388.84" y1="633.08" x2="641.08" y2="380.85">
   <stop offset="0" style="stop-opacity:1; stop-color:#A4A4A4"/>
   <stop offset="0.631373" style="stop-opacity:1; stop-color:#7F7F7F"/>
   <stop offset="1" style="stop-opacity:1; stop-color:#6F6F6F"/>
  </linearGradient>
 </defs>
 <g id="Слой_x0020_1">
  <metadata id="CorelCorpID_0Corel-Layer"/>
  <path class="fil0" d="M969.99 969.99l0 0c40.92,-40.92 39.84,-108.35 -2.41,-150.6l-319.39 -319.39 319.4 -319.4c42.25,-42.25 43.33,-109.68 2.41,-150.6l0 0c-40.91,-40.91 -108.34,-39.83 -150.59,2.42l-319.41 319.39 -319.4 -319.4c-42.25,-42.25 -109.68,-43.33 -150.6,-2.41l0 0c-40.91,40.91 -39.83,108.34 2.42,150.59l319.39 319.41 -319.4 319.39c-42.25,42.25 -43.32,109.68 -2.4,150.6l0 0c40.92,40.92 108.35,39.84 150.6,-2.41l319.39 -319.39 319.39 319.4c42.25,42.25 109.68,43.32 150.6,2.4z"/>
 </g>
</svg>
