<?xml version="1.0" encoding="UTF-8"?>
<!DOCTYPE svg PUBLIC "-//W3C//DTD SVG 1.1//EN" "http://www.w3.org/Graphics/SVG/1.1/DTD/svg11.dtd">
<!-- Creator: CorelDRAW 2018 (64-Bit) -->
<svg xmlns="http://www.w3.org/2000/svg" xml:space="preserve" width="12mm" height="10mm" version="1.1" style="shape-rendering:geometricPrecision; text-rendering:geometricPrecision; image-rendering:optimizeQuality; fill-rule:evenodd; clip-rule:evenodd"
viewBox="0 0 1200 1000"
 xmlns:xlink="http://www.w3.org/1999/xlink">
 <defs>
  <style type="text/css">
   <![CDATA[
    .fil0 {fill:url(#id0)}
   ]]>
  </style>
  <linearGradient id="id0" gradientUnits="userSpaceOnUse" x1="586.05" y1="-324.3" x2="586.05" y2="1378.35">
   <stop offset="0" style="stop-opacity:1; stop-color:#A4A4A4"/>
   <stop offset="0.631373" style="stop-opacity:1; stop-color:#7F7F7F"/>
   <stop offset="1" style="stop-opacity:1; stop-color:#6F6F6F"/>
  </linearGradient>
 </defs>
 <g id="Слой_x0020_1">
  <metadata id="CorelCorpID_0Corel-Layer"/>
  <path class="fil0" d="M97.67 405.41l1004.66 0c53.94,0 97.67,42.35 97.67,94.59l0 0c0,52.24 -43.73,94.59 -97.67,94.59l-1004.66 0.01c-53.94,0 -97.67,-42.35 -97.67,-94.59l0 0c0,-52.25 43.73,-94.6 97.67,-94.6zm-97.67 -310.81l0 0c0,52.24 43.73,94.59 97.67,94.59l1004.66 0c53.94,0 97.67,-42.35 97.67,-94.59l0 0c0,-52.23 -43.73,-94.58 -97.67,-94.58l-1004.66 -0.02c-53.94,0 -97.67,42.36 -97.67,94.6zm0 810.81l0 0c0,52.23 43.73,94.59 97.67,94.59l1004.66 0c53.94,0 97.67,-42.36 97.67,-94.59l0 0c0,-52.24 -43.73,-94.59 -97.67,-94.59l-1004.66 -0.01c-53.94,0 -97.67,42.35 -97.67,94.6z"/>
 </g>
</svg>
